Coordinates
version=1
nRows=13
nColumns=36
inDegrees=yes

Units are S.I. units (second, meters, Newtons, ...)
If the header above contains a line with 'inDegrees', this indicates whether rotational values are in degrees (yes) or radians (no).

endheader
time	pelvis_tilt	pelvis_list	pelvis_rotation	pelvis_tx	pelvis_ty	pelvis_tz	hip_flexion_r	hip_adduction_r	hip_rotation_r	knee_angle_r	knee_angle_r_beta	ankle_angle_r	subtalar_angle_r	mtp_angle_r	hip_flexion_l	hip_adduction_l	hip_rotation_l	knee_angle_l	knee_angle_l_beta	ankle_angle_l	subtalar_angle_l	mtp_angle_l	lumbar_extension	lumbar_bending	lumbar_rotation	arm_flex_r	arm_add_r	arm_rot_r	elbow_flex_r	pro_sup_r	arm_flex_l	arm_add_l	arm_rot_l	elbow_flex_l	pro_sup_l
      1.03000000	    -13.71431267	      2.48987233	      0.88279540	     -0.74407449	      1.44858472	     -0.56184450	     22.38392150	     -3.44544196	     -6.67286910	     37.67152909	      0.65749222	    -16.57419576	    -14.63265298	     -4.17276749	     22.61285098	      0.18225258	     -3.60054593	     38.66635803	      0.67485526	    -12.16720887	    -16.02769124	     -4.17276749	     -8.46197247	     -2.11507181	     -6.56536461	     22.73411880	    -30.70867256	    -21.50574033	    134.09069952	     99.11324167	     30.83889948	    -24.16724710	     -3.86701918	    130.89063448	     89.96664675
      1.04000000	    -13.41994856	      2.39318566	      0.74321987	     -0.73190059	      1.45200327	     -0.56178701	     22.46504718	     -3.34136595	     -6.53122032	     36.72969308	      0.64105408	    -16.34175164	    -14.30459213	     -4.19372154	     22.38142162	     -0.09458703	     -3.33225331	     36.91153887	      0.64422789	    -12.03595816	    -15.70836449	     -4.19372154	     -8.65356203	     -1.98241121	     -6.64972492	     21.37505649	    -31.92879003	    -23.43694344	    134.17135504	     99.03554535	     29.39242340	    -25.20137864	     -5.23387508	    133.03203369	     90.23022812
      1.05000000	    -12.73083161	      2.35226014	      0.63956812	     -0.71960782	      1.45514448	     -0.56178514	     22.02176372	     -3.36011232	     -6.57235451	     35.48771577	      0.61937748	    -16.09984753	    -13.21779674	     -4.23989459	     21.62353288	     -0.35174506	     -3.27842462	     34.84400163	      0.60814255	    -12.05112382	    -15.07916815	     -4.23989459	     -9.49930339	     -1.86947610	     -6.78139446	     20.03199144	    -32.85380729	    -26.26386383	    134.76611909	     98.93283078	     28.03216954	    -26.07709187	     -7.34043583	    135.33873938	     90.52778228
      1.06000000	    -12.42325873	      2.27543096	      0.45900712	     -0.70746700	      1.45679273	     -0.56161889	     21.94591035	     -3.23850341	     -6.42660890	     33.99766284	      0.59337115	    -15.89325028	    -12.35650471	     -4.27035979	     21.26440032	     -0.62025783	     -3.11497183	     32.75103753	      0.57161344	    -12.05605253	    -14.68026336	     -4.27035979	     -9.83370590	     -1.77102522	     -6.77728401	     18.41612816	    -33.91783475	    -28.60554376	    134.86555038	     98.80506317	     26.45906945	    -27.01979622	     -9.07848789	    137.37740644	     90.76223593
      1.07000000	    -11.79663788	      2.25147805	      0.35082898	     -0.69515290	      1.45774391	     -0.56167599	     21.52897169	     -3.23757554	     -6.42155813	     32.52040836	      0.56758820	    -15.56755100	    -11.23645797	     -4.35133480	     20.52428529	     -0.84678532	     -3.18859325	     30.52182965	      0.53270642	    -12.44001465	    -14.51044367	     -4.35133480	    -10.56748624	     -1.67098213	     -6.63785730	     16.41920138	    -35.20311072	    -31.56600688	    135.15030086	     98.57584845	     25.08008473	    -27.85029000	    -10.97679931	    138.85787951	     90.97355049
      1.08000000	    -11.68602750	      2.24575128	      0.21489484	     -0.68316931	      1.45695817	     -0.56164594	     21.70129180	     -3.16944559	     -6.14042173	     30.97655684	      0.54064291	    -15.70222842	    -10.50470638	     -4.38652660	     20.39517475	     -1.05612265	     -3.20451664	     28.39787569	      0.49563643	    -12.82855988	    -14.20090126	     -4.38652660	    -10.75255280	     -1.62017142	     -6.61219036	     14.46046676	    -36.28131688	    -34.17435655	    135.29923929	     98.42285825	     23.32592371	    -28.76001255	    -12.96395135	    140.68125260	     91.13149855
      1.09000000	    -11.33310848	      2.29367237	      0.13061870	     -0.67111105	      1.45538430	     -0.56169502	     21.62615801	     -3.21592909	     -6.05170117	     29.45907983	      0.51415794	    -15.99444237	     -9.64118333	     -4.84667390	     19.96410092	     -1.17149498	     -3.28295715	     26.15162639	      0.45643199	    -13.73547659	    -14.34042272	     -4.84667390	    -11.29415606	     -1.73800330	     -5.06383542	      9.65545343	    -37.84699783	    -40.40613638	    136.30212107	     97.42606517	     23.54613173	    -28.76654307	    -12.67202782	    141.16677575	     91.15803467
      1.10000000	    -11.17318790	      2.33409726	      0.03586099	     -0.65911879	      1.45253669	     -0.56181256	     21.77849169	     -3.26924754	     -6.01223219	     27.91744243	      0.48725129	    -16.67532901	     -8.76230150	     -4.89293852	     19.79783372	     -1.31610679	     -3.45266586	     24.06638123	      0.42003759	    -14.32693515	    -13.95541825	     -4.89293852	    -11.55668260	     -1.66349458	     -5.16022833	      7.51318951	    -38.91885815	    -42.98067709	    136.30494442	     97.22789585	     21.46671582	    -29.73118048	    -15.23350866	    142.62070354	     91.20776655
      1.11000000	    -10.99236125	      2.40980497	     -0.08545884	     -0.64712750	      1.44870746	     -0.56200279	     21.91388134	     -3.39226501	     -6.13909224	     26.35238436	      0.45993587	    -17.64629312	     -7.82149736	     -4.93744135	     19.62113815	     -1.41486830	     -3.66658722	     22.03125039	      0.38451786	    -15.11250779	    -13.62519918	     -4.93744135	    -11.87482281	     -1.61829271	     -5.16314032	      5.02441577	    -40.00188429	    -45.74751557	    136.34007187	     97.02808345	     19.36567981	    -30.56677384	    -17.88591916	    143.88062417	     91.21319298
      1.12000000	    -10.87095934	      2.49443614	     -0.11463276	     -0.63514037	      1.44380687	     -0.56224380	     22.05930441	     -3.54545938	     -6.27343656	     24.73601674	      0.43172494	    -18.82079454	     -6.92990552	     -4.97597421	     19.55222447	     -1.48383698	     -3.95386637	     20.07306880	      0.35034114	    -15.90905240	    -13.19493629	     -4.97597421	    -12.10328958	     -1.58853838	     -5.22795390	      2.27682269	    -41.05670204	    -48.49029066	    136.26454165	     96.81835696	     17.23706931	    -31.38927164	    -20.38383264	    144.97912053	     91.20348290
      1.13000000	    -10.68993931	      2.58688954	     -0.15370609	     -0.62313856	      1.43796005	     -0.56241815	     22.10569503	     -3.72069428	     -6.55596503	     23.01802800	      0.40174038	    -20.25111578	     -6.09706285	     -5.01776308	     19.46323382	     -1.54887222	     -4.33536241	     18.25241301	      0.31856470	    -16.73064664	    -12.66066990	     -5.01776308	    -12.41715354	     -1.56913139	     -5.20952441	     -0.80492086	    -42.01387719	    -51.51197621	    136.22970363	     96.55834419	     15.09085222	    -32.16849930	    -22.96795091	    145.86393179	     91.17613111
      1.14000000	    -10.54095600	      2.69271268	     -0.15662584	     -0.61111277	      1.43103877	     -0.56274549	     22.15489329	     -3.93213997	     -6.85924373	     21.26151986	      0.37108353	    -21.85797230	     -5.14025900	     -5.05273204	     19.45905399	     -1.57304550	     -4.77652373	     16.57314700	      0.28925598	    -17.41467154	    -11.98002283	     -5.05273204	    -12.67797870	     -1.54293407	     -5.21115738	     -4.12670167	    -42.94879227	    -54.45767254	    136.07105506	     96.28590238	     12.75624259	    -33.00457131	    -25.45374803	    146.63036214	     91.17102362
      1.15000000	    -10.25564063	      2.79608912	     -0.15563770	     -0.59905414	      1.42308859	     -0.56299766	     22.00435213	     -4.11639814	     -7.21924833	     19.43114761	      0.33913750	    -23.59753097	     -4.45734761	     -5.53027389	     19.37192535	     -1.61278260	     -5.37256239	     15.07798695	      0.26316052	    -17.91902994	    -11.29384459	     -5.53027389	    -13.21131929	     -1.61571084	     -1.95403578	    -14.31898419	    -42.77125923	    -65.63210327	    137.32610712	     93.37120294	     15.14445366	    -32.71629825	    -22.03028686	    145.49441360	     91.27126590
